<svg width="764" height="764" viewBox="0 0 764 764" fill="none" xmlns="http://www.w3.org/2000/svg">
    <path d="M432.293 719.128L179.068 655.992L210.205 614.034L424.581 667.484L424.704 667.41L432.293 719.128Z" fill="#F6EBE1"/>
    <path d="M655.967 584.748L432.298 719.128L424.709 667.411L614.018 553.649L614.042 553.55L655.967 584.748Z" fill="#F6EBE1"/>
    <path d="M179.072 655.993L44.6463 432.294L96.3226 424.521L96.3104 424.57L210.142 614.018L210.208 614.035L179.072 655.993Z" fill="#F6EBE1"/>
    <path d="M210.21 614.034L210.145 614.018L96.3127 424.57L96.325 424.52L148.001 416.747L147.977 416.846L241.203 572.023L241.35 572.06L210.21 614.034Z" fill="#F6EBE1"/>
    <path d="M424.584 667.484L210.207 614.034L241.348 572.06L416.86 615.82L417.126 615.66L424.707 667.41L424.584 667.484Z" fill="#F6EBE1"/>
    <path d="M424.708 667.41L417.127 615.66L572.026 522.573L572.088 522.327L614.041 553.549L614.017 553.648L424.708 667.41Z" fill="#F6EBE1"/>
    <path d="M241.341 572.059L241.194 572.022L147.968 416.844L147.992 416.746L382.778 381.429L241.341 572.059Z" fill="#F6EBE1"/>
    <path d="M416.86 615.819L241.348 572.059L382.785 381.43L417.126 615.659L416.86 615.819Z" fill="#F6EBE1"/>
    <path d="M417.128 615.66L382.786 381.43L572.088 522.328L572.027 522.573L417.128 615.66Z" fill="#F6EBE1"/>
    <path d="M655.963 584.747L614.037 553.55L667.144 340.549L718.735 333.12L656.004 584.723L655.963 584.747Z" fill="#F6EBE1"/>
    <path d="M96.3226 424.52L44.6463 432.294L107.782 179.069L149.9 210.053L149.777 210.127L96.3226 424.52Z" fill="#F6EBE1"/>
    <path d="M147.999 416.747L96.3223 424.521L149.776 210.127L149.899 210.054L192.013 241.055L191.767 241.202L147.999 416.747Z" fill="#F6EBE1"/>
    <path d="M614.042 553.549L572.089 522.327L615.563 347.962L667.149 340.549L614.042 553.549Z" fill="#F6EBE1"/>
    <path d="M382.785 381.43L147.999 416.747L191.767 241.202L192.013 241.054L382.785 381.43Z" fill="#F6EBE1"/>
    <path d="M572.089 522.328L382.787 381.431L615.563 347.962L572.089 522.328Z" fill="#F6EBE1"/>
    <path d="M615.563 347.962L382.787 381.43L521.693 191.527L522.594 191.752L615.82 346.93L615.563 347.962Z" fill="#F6EBE1"/>
    <path d="M667.151 340.55L615.564 347.963L615.822 346.931L522.596 191.753L521.694 191.529L552.454 149.477L553.666 149.779L667.486 339.207L667.151 340.55Z" fill="#F6EBE1"/>
    <path d="M192.017 241.055L149.904 210.054L339.225 96.3122L339.356 96.3449L347.232 148.029L346.937 147.956L192.017 241.055Z" fill="#F6EBE1"/>
    <path d="M667.148 340.549L667.483 339.206L553.664 149.778L552.451 149.476L583.215 107.408L584.722 107.784L719.143 331.498L718.739 333.12L667.148 340.549Z" fill="#F6EBE1"/>
    <path d="M149.897 210.053L107.779 179.068L331.473 44.6595L339.349 96.344L339.218 96.3113L149.897 210.053Z" fill="#F6EBE1"/>
    <path d="M655.962 584.747L656.003 584.722L718.735 333.119L719.139 331.497L584.718 107.783L583.211 107.407L331.493 44.6466L331.473 44.6589L107.779 179.068L44.6427 432.293L179.068 655.991L432.293 719.127L655.962 584.747Z" fill="#F6EBE1" stroke="#0A0A0A" stroke-width="3.37725" stroke-miterlimit="10"/>
    <path d="M654.22 584.593L653.684 584.18L612.108 553.07L570.504 521.935L382.78 381.431L613.979 347.569L665.215 340.069L716.456 332.553L717.083 332.465" fill="#204BEF"/>
    <path d="M654.22 584.593L653.684 584.18L612.108 553.07L570.504 521.935L382.78 381.431L613.979 347.569L665.215 340.069L716.456 332.553L717.083 332.465" stroke="#0A0A0A" stroke-width="3.37725" stroke-miterlimit="10"/>
    <path d="M582.989 109.14L582.675 109.563L551.994 151.3L521.317 193.021L382.783 381.43L346.853 149.522L338.895 98.1686L330.937 46.8149L330.862 46.2778" fill="#204BEF"/>
    <path d="M582.989 109.14L582.675 109.563L551.994 151.3L521.317 193.021L382.783 381.43L346.853 149.522L338.895 98.1686L330.937 46.8149L330.862 46.2778" stroke="#0A0A0A" stroke-width="3.37725" stroke-miterlimit="10"/>
    <path d="M179.434 654.539L210.515 612.804L241.6 571.052L382.785 381.431L417.378 614.653L425.015 666.18L432.659 717.675" fill="#204BEF"/>
    <path d="M179.434 654.539L210.515 612.804L241.6 571.052L382.785 381.431L417.378 614.653L425.015 666.18L432.659 717.675" stroke="#0A0A0A" stroke-width="3.37725" stroke-miterlimit="10"/>
    <path d="M46.428 432.305L98.1044 424.531L149.781 416.758L384.567 381.442L193.795 241.065L151.681 210.064L109.564 179.08" fill="#204BEF"/>
    <path d="M46.428 432.305L98.1044 424.531L149.781 416.758L384.567 381.442L193.795 241.065L151.681 210.064L109.564 179.08" stroke="#0A0A0A" stroke-width="3.37725" stroke-miterlimit="10"/>
</svg>
